<svg xmlns="http://www.w3.org/2000/svg" role="img" width="1358.263916015625" height="1240"><rect width="1358.263916015625" height="1240" fill="transparent"></rect><g transform="translate(80,40)"><g transform="translate(599.1319580078125,560)"><path d="M3.6242981117956354,-556.9606078301463A3,3,0,0,1,6.659976557640136,-559.9603956640609A560,560,0,0,1,444.9070201737219,-340.0849061633571A3,3,0,0,1,444.31699858883013,-335.85809351025443L157.27194660920384,-121.80225376026902A3,3,0,0,1,153.13464017517762,-122.33471289220766A196,196,0,0,0,6.524434321165581,-195.89137744369657A3,3,0,0,1,3.6242981117956488,-198.8897148535491Z" fill="#e8c1a0" stroke-width="1" stroke="rgb(216, 180, 149)"></path><path d="M448.65023086792183,-330.04730653875913A3,3,0,0,1,452.86972757453856,-329.40705797927774A560,560,0,0,1,547.9452952442253,-115.56796017806444A3,3,0,0,1,545.5940338846855,-112.00626947080167L194.3770194501362,-42.282721305642205A3,3,0,0,1,190.8713591893973,-44.54350952935882A196,196,0,0,0,160.9352924756258,-111.87417769880939A3,3,0,0,1,161.60517888829557,-115.99146678877378Z" fill="#f47560" stroke-width="1" stroke="rgb(227, 109, 89)"></path><path d="M547.0054802151149,-104.89641950972802A3,3,0,0,1,550.5389559153585,-102.50296590648966A560,560,0,0,1,554.745458631214,76.53415007723031A3,3,0,0,1,551.3282889098253,79.09091009144605L197.22429749455895,25.93898010922808A3,3,0,0,1,194.68967257669814,22.625900909755398A196,196,0,0,0,193.4122343041581,-31.74441086984374A3,3,0,0,1,195.78846578056545,-35.172871344568556Z" fill="#f1e15b" stroke-width="1" stroke="rgb(224, 210, 85)"></path><path d="M550.2523095814224,86.25920247509715A3,3,0,0,1,552.7682490081016,89.70653760187957A560,560,0,0,1,507.86597119472214,235.949476164796A3,3,0,0,1,503.8489780694518,237.390946562202L180.93044793478896,82.67059466004729A3,3,0,0,1,179.47959385938273,78.75960505278717A196,196,0,0,0,192.75270264692037,35.530207180762304A3,3,0,0,1,196.14831816615575,33.107272492879176Z" fill="#e8a838" stroke-width="1" stroke="rgb(216, 156, 52)"></path><path d="M500.7169017669416,243.92793709668464A3,3,0,0,1,502.11049686341124,247.96178927322293A560,560,0,0,1,450.6097388792515,332.4918994910594A3,3,0,0,1,446.38596847430176,333.10331934789957L160.8093372937738,117.09231934873654A3,3,0,0,1,160.1675823272693,112.97055178867372A196,196,0,0,0,173.8412535534076,90.5274464622738A3,3,0,0,1,177.79837163227876,89.20758519452993Z" fill="#61cdbb" stroke-width="1" stroke="rgb(90, 191, 174)"></path><path d="M442.0131569736741,338.8843803917426A3,3,0,0,1,442.57430106844424,343.11512358649827A560,560,0,0,1,403.14162374747553,388.6860316531183A3,3,0,0,1,398.87415237819255,388.73855581342553L144.07439511881188,137.1598442784101A3,3,0,0,1,143.97842777252146,132.98951964780093A196,196,0,0,0,152.29567980859156,123.37757458970798A3,3,0,0,1,156.43652579314613,122.87338039257958Z" fill="#97e3d5" stroke-width="1" stroke="rgb(141, 211, 198)"></path><path d="M393.78132709097247,393.8965862327341A3,3,0,0,1,393.7830952879506,398.1643804579219A560,560,0,0,1,352.3504060955025,435.2576148952876A3,3,0,0,1,348.10879354023416,434.78560471948913L126.13741875355268,153.81679297632013A3,3,0,0,1,126.55438296547052,149.66625589032762A196,196,0,0,0,134.81036182687112,142.27496738396422A3,3,0,0,1,138.98156983159183,142.31787469771882Z" fill="#e8c1a0" stroke-width="1" stroke="rgb(216, 180, 149)"></path><path d="M342.42101073605755,439.27907486906986A3,3,0,0,1,341.89858922716064,443.5147739190626A560,560,0,0,1,310.5792593933767,465.9833941619182A3,3,0,0,1,306.39949139323375,465.1210658369462L111.36886454984527,164.82484709596258A3,3,0,0,1,112.16795858007347,160.73067245544306A196,196,0,0,0,116.31527895299189,157.7553672053274A3,3,0,0,1,120.449635949376,158.310263125901Z" fill="#f47560" stroke-width="1" stroke="rgb(227, 109, 89)"></path><path d="M300.32045486772955,469.0691618507543A3,3,0,0,1,299.40847831962066,473.23837873774477A560,560,0,0,1,271.59356110482247,489.7314953792548A3,3,0,0,1,267.497915924109,488.5315948713936L97.57405184004774,173.34808513175128A3,3,0,0,1,98.70395666788512,169.33259856892363A196,196,0,0,0,101.22452254827085,167.83800533512846A3,3,0,0,1,105.28982802434106,168.77294310977075Z" fill="#f1e15b" stroke-width="1" stroke="rgb(224, 210, 85)"></path><path d="M261.1175090179651,491.97144296755897A3,3,0,0,1,259.8689846179091,496.0525283008413A560,560,0,0,1,230.80313660866796,510.2253542618208A3,3,0,0,1,226.8188296134793,508.6958548524851L83.1308642283521,180.71943344304873A3,3,0,0,1,84.58407169032601,176.8093176738313A196,196,0,0,0,87.21799593359476,175.52498735316132A3,3,0,0,1,91.1936449339038,176.78793322791662Z" fill="#e8a838" stroke-width="1" stroke="rgb(216, 156, 52)"></path><path d="M220.17944982504514,511.6045974051344A3,3,0,0,1,218.60267395789165,515.5704325681019A560,560,0,0,1,189.9405263080911,526.8041348222367A3,3,0,0,1,186.08892095773123,524.9658728985308L68.65323562868534,186.70026097743258A3,3,0,0,1,70.40960441843896,182.91661380432052A196,196,0,0,0,72.63190991259314,182.04561423568808A3,3,0,0,1,76.49148443991787,183.62817599569797Z" fill="#61cdbb" stroke-width="1" stroke="rgb(90, 191, 174)"></path><path d="M179.24125228307503,527.3431782922049A3,3,0,0,1,177.3573139340122,531.1726491397238A560,560,0,0,1,149.39721371900671,539.7040601412939A3,3,0,0,1,145.6962859063599,537.5786886442035L54.280756652577836,191.37359710407512A3,3,0,0,1,56.319311963713886,187.7342139833171A196,196,0,0,0,58.08248254745057,187.19622117213024A3,3,0,0,1,61.805566954029025,189.07756637110674Z" fill="#97e3d5" stroke-width="1" stroke="rgb(141, 211, 198)"></path><path d="M138.68789463985766,539.4292558729948A3,3,0,0,1,136.5186590025047,543.1046452979A560,560,0,0,1,109.51479347266664,549.1871356929614A3,3,0,0,1,105.97926385438043,546.7967171117733L40.135354727960504,194.8317415417468A3,3,0,0,1,42.43468743074394,191.3512406613949A196,196,0,0,0,43.70285848641715,191.06559125105755A3,3,0,0,1,47.27236538607558,193.22416433286645Z" fill="#e8c1a0" stroke-width="1" stroke="rgb(216, 180, 149)"></path><path d="M98.85427256691486,548.1296260982391A3,3,0,0,1,96.42197564030535,551.6364768700674A560,560,0,0,1,70.58619384684424,555.5336076586328A3,3,0,0,1,67.22769394537977,552.9002544565479L26.321711405923264,197.1735827132847A3,3,0,0,1,28.860331219642298,193.86356357472783A196,196,0,0,0,29.608331468840273,193.75073343766027A3,3,0,0,1,33.01036344049488,196.1646505282123Z" fill="#f47560" stroke-width="1" stroke="rgb(227, 109, 89)"></path><path d="M60.02655288642919,553.7283333548156A3,3,0,0,1,57.35344390147352,557.0552777531511A560,560,0,0,1,34.40769351792282,558.9419564022518A3,3,0,0,1,31.227054278166538,556.0963273502512L13.470019742082,198.2980836573235A2.826686019451048,2.826686019451048,0,0,1,19.10141136447814,197.83505123689264Z" fill="#f1e15b" stroke-width="1" stroke="rgb(224, 210, 85)"></path><path d="M23.987368246037857,556.4556230068649A3,3,0,0,1,21.104113687740536,559.6021947646872A560,560,0,0,1,-1.9156900517895432,559.9967233222222A3,3,0,0,1,-4.905075656530401,556.950800739287L0.580767765885263,198.75420529594086A2.8266860194509733,2.8266860194509733,0,0,1,6.230333709953074,198.65737931393718Z" fill="#e8a838" stroke-width="1" stroke="rgb(216, 156, 52)"></path><path d="M-12.152821933934769,556.8398002391452A3,3,0,0,1,-15.234081313848748,559.7927498338317A560,560,0,0,1,-38.2310070714173,558.6934670266919A3,3,0,0,1,-41.016551394889774,555.4600766238736L-12.310929695825477,198.3734166264305A2.826686019451045,2.826686019451045,0,0,1,-6.666978511519218,198.6432047957993Z" fill="#61cdbb" stroke-width="1" stroke="rgb(90, 191, 174)"></path><path d="M-48.24183924974479,554.8792473657047A3,3,0,0,1,-51.508128944732405,557.6261405750387A560,560,0,0,1,-74.38534171655624,555.0376752417003A3,3,0,0,1,-76.95531544337504,551.6304321158684L-25.15078853631193,197.15732106625086A2.826686019451199,2.826686019451199,0,0,1,-19.53621755068033,197.79258736826185Z" fill="#97e3d5" stroke-width="1" stroke="rgb(141, 211, 198)"></path><path d="M-84.12772077534073,550.5822198441169A3,3,0,0,1,-87.56528715683852,553.1114901040661A560,560,0,0,1,-108.7036021640611,549.348274664222A3,3,0,0,1,-111.05706482271216,545.7880381286246L-37.28689844661911,194.94576985031784A2.542332448174865,2.542332448174865,0,0,1,-32.283359367333304,195.8365407329827Z" fill="#e8c1a0" stroke-width="1" stroke="rgb(216, 180, 149)"></path><path d="M-118.15054926481564,544.2965202164639A3,3,0,0,1,-121.73852330993458,546.6074751979855A560,560,0,0,1,-141.10023367014608,541.9323980518514A3,3,0,0,1,-143.23835380661745,538.2388207943565L-48.71320568647175,192.12519857663898A2.2587788578167407,2.2587788578167407,0,0,1,-44.32378275065328,193.1850683128444Z" fill="#f47560" stroke-width="1" stroke="rgb(227, 109, 89)"></path><path d="M-150.2308673834045,536.3291346706416A3,3,0,0,1,-153.949611691456,538.4231765628685A560,560,0,0,1,-171.52237557417342,533.0854290612267A3,3,0,0,1,-173.44819058493133,529.2768457000009L-59.41328661234009,188.80238021322808A1.97602242070629,1.97602242070629,0,0,1,-55.63335389989748,189.95053917825336Z" fill="#f1e15b" stroke-width="1" stroke="rgb(224, 210, 85)"></path><path d="M-180.32151461086087,526.9747674981927A3,3,0,0,1,-184.15273198353512,528.8551515330074A560,560,0,0,1,-198.49459200412724,523.6410000612204A3,3,0,0,1,-200.2236029804824,519.7391297765095L-68.76736204481935,185.01530000419052A1.412889759226968,1.412889759226968,0,0,1,-66.11251405094667,185.9805011395207Z" fill="#e8a838" stroke-width="1" stroke="rgb(216, 156, 52)"></path><path d="M-206.97053560721835,517.0894038769218A3,3,0,0,1,-210.89269275190944,518.771888351565A560,560,0,0,1,-223.52699172560662,513.4546561967285A3,3,0,0,1,-225.06573986860636,509.47391194125527L-77.50137145292531,181.23264453119214A1.1325079429910767,1.1325079429910767,0,0,1,-75.41431445542807,182.11099691142093Z" fill="#61cdbb" stroke-width="1" stroke="rgb(90, 191, 174)"></path><path d="M-231.67697710205047,506.50175961410554A3,3,0,0,1,-235.67573987864444,507.9930566776021A560,560,0,0,1,-246.64565560210372,502.7583122859417A3,3,0,0,1,-248.00178304517905,498.7117101269441L-85.53974644368138,177.27693280468256A0.8529120961334848,0.8529120961334848,0,0,1,-84.00062175269137,178.01138916217275Z" fill="#97e3d5" stroke-width="1" stroke="rgb(141, 211, 198)"></path><path d="M-254.47101855133138,495.4419793767754A3,3,0,0,1,-258.5334626995946,496.7498854197727A560,560,0,0,1,-267.8913986457034,491.76640646921874A3,3,0,0,1,-269.07347496455765,487.66558139961734L-92.89917624451077,173.22421488909836A0.5740994540504833,0.5740994540504833,0,0,1,-91.88595725258625,173.76379493619805Z" fill="#e8c1a0" stroke-width="1" stroke="rgb(216, 180, 149)"></path><path d="M-275.3971716005932,484.1225589514731A3,3,0,0,1,-279.5117648668361,485.2557813164378A560,560,0,0,1,-287.31659216782276,480.67574919593045A3,3,0,0,1,-288.3339573080342,476.53098878710693L-99.60034881420032,169.14397066327024A0.29606726454936144,0.29606726454936144,0,0,1,-99.08975417227849,169.44359803110007Z" fill="#f47560" stroke-width="1" stroke="rgb(227, 109, 89)"></path><path d="M-294.5111171880129,472.7382532268757A3,3,0,0,1,-298.66768380665906,473.70625354703253A560,560,0,0,1,-306.28337937637235,468.81818599302346A3,3,0,0,1,-307.1344101577412,464.63610310476906L-106.27573026942287,165.0314559450667A0.2960672645493835,0.2960672645493835,0,0,1,-105.77750869417903,165.35123510303904Z" fill="#f1e15b" stroke-width="1" stroke="rgb(224, 210, 85)"></path><path d="M-313.15517778021933,460.5997056455513A3,3,0,0,1,-317.34708605497036,461.400939501015A560,560,0,0,1,-323.4952320556912,457.11140309254426A3,3,0,0,1,-324.19024941721926,452.90058113688735L-112.17590851946775,160.74764008949012A0.018812787782465312,0.018812787782465312,0,0,1,-112.14505641206051,160.76916547909306Z" fill="#e8a838" stroke-width="1" stroke="rgb(216, 156, 52)"></path><path d="M-330.05684648666187,448.6432126964693A3,3,0,0,1,-334.27563635754655,449.2881023772578A560,560,0,0,1,-340.2601159957518,444.7730358987126A3,3,0,0,1,-340.7981596418828,440.53929290817507L-118.0725363995893,156.46761452350424A0.01881278778247231,0.01881278778247231,0,0,1,-118.04250558891032,156.49027164907193Z" fill="#61cdbb" stroke-width="1" stroke="rgb(90, 191, 174)"></path><path d="M-346.502480364955,436.06683583169126A3,3,0,0,1,-350.74232279029695,436.5544903029484A560,560,0,0,1,-356.55486739599115,431.8201321571601A3,3,0,0,1,-356.93519391950804,427.5693178339301L-123.80602514347024,151.97139989051448A0.01881278778247823,0.01881278778247823,0,0,1,-123.77685712266148,151.99515744702032Z" fill="#97e3d5" stroke-width="1" stroke="rgb(141, 211, 198)"></path><path d="M-362.4693567177837,422.88795165141005A3,3,0,0,1,-366.7243935678929,423.21769712792167A560,560,0,0,1,-372.35697203125767,418.2705887098843A3,3,0,0,1,-372.5790559404381,414.00857634336654L-129.36845287164684,147.2652085460267A0.01881278778243978,0.01881278778243978,0,0,1,-129.34018794174588,147.2900337079943Z" fill="#e8c1a0" stroke-width="1" stroke="rgb(216, 180, 149)"></path><path d="M-377.93541434026406,409.124769231566A3,3,0,0,1,-382.1997664915308,409.29615010871936A560,560,0,0,1,-387.64459635939517,404.14312676743816A3,3,0,0,1,-387.70813080407527,399.8758051192135L-134.75213405721638,142.35554296736822A0.018812787782463695,0.018812787782463695,0,0,1,-134.72481127147287,142.38140143422612Z" fill="#f47560" stroke-width="1" stroke="rgb(227, 109, 89)"></path><path d="M-392.8792624771962,394.79928663256715A3,3,0,0,1,-397.14556694147603,394.8105857987264A560,560,0,0,1,-401.31663254151647,390.57004550469236A3,3,0,0,1,-401.2348656194111,386.304509709093L-139.73285548474942,137.4435487684967Z" fill="#f1e15b" stroke-width="1" stroke="rgb(224, 210, 85)"></path><path d="M-406.2253576664647,381.0532120307641A3,3,0,0,1,-410.48952666677656,380.91777130620426A560,560,0,0,1,-414.5122774457642,376.53628224478695A3,3,0,0,1,-414.28385213102825,372.27608232827146L-144.37735179368457,132.5563287400592Z" fill="#e8a838" stroke-width="1" stroke="rgb(216, 156, 52)"></path><path d="M-419.0907810591019,366.85625092327587A3,3,0,0,1,-423.34776895825,366.5742305701155A560,560,0,0,1,-427.21744494045265,362.05697719910233A3,3,0,0,1,-426.8426315205123,357.80715410239304L-148.85101159581438,127.5122595945297Z" fill="#61cdbb" stroke-width="1" stroke="rgb(90, 191, 174)"></path><path d="M-431.46030946418716,352.2252020615183A3,3,0,0,1,-435.7050791221134,351.7969357842573A560,560,0,0,1,-439.4171014596784,347.1492632064408A3,3,0,0,1,-438.8963434377187,342.914845591744L-153.148541371042,122.31730979678319Z" fill="#97e3d5" stroke-width="1" stroke="rgb(141, 211, 198)"></path><path d="M-443.31930646543185,337.17737783727154A3,3,0,0,1,-447.54683519948173,336.60337238793085A560,560,0,0,1,-451.0968115904206,331.8307800264415A3,3,0,0,1,-450.43072516060414,327.6167783272126L-157.2648560075714,116.97762634332187Z" fill="#e8c1a0" stroke-width="1" stroke="rgb(216, 180, 149)"></path><path d="M-454.6542664247877,321.7337370806452A3,3,0,0,1,-458.85772414251204,321.01337821772205A560,560,0,0,1,-461.36570564139066,317.39830758531406A3,3,0,0,1,-460.5685481090812,313.2087355851249L-161.04034285600497,111.7229071087052Z" fill="#f47560" stroke-width="1" stroke="rgb(227, 109, 89)"></path><path d="M-464.60080466284927,307.19568984732285A3,3,0,0,1,-468.7793809113238,306.3427688593219A560,560,0,0,1,-471.17179184101536,302.65019836987864A3,3,0,0,1,-470.24254968732606,298.4879294338421L-164.49272451527023,106.57459163207436Z" fill="#f1e15b" stroke-width="1" stroke="rgb(224, 210, 85)"></path><path d="M-474.0826442397259,292.35038222107596A3,3,0,0,1,-478.23215956258974,291.3657522086317A560,560,0,0,1,-480.5066070082631,287.59937521038984A3,3,0,0,1,-479.4462096710693,283.4685724841198L-167.78057880374809,101.3196791165432Z" fill="#e8a838" stroke-width="1" stroke="rgb(216, 156, 52)"></path><path d="M-483.0903013187285,277.2126626363228A3,3,0,0,1,-487.2066053266674,276.0973084368353A560,560,0,0,1,-489.36081436182167,272.26089210008615A3,3,0,0,1,-488.1703224618067,268.165687256359L-170.90061717464584,95.96342558144298Z" fill="#61cdbb" stroke-width="1" stroke="rgb(90, 191, 174)"></path><path d="M-491.6147663455411,261.79767200102964A3,3,0,0,1,-495.6937418675507,260.55270920361977A560,560,0,0,1,-497.72555782942044,256.65009075274503A3,3,0,0,1,-496.4061621092316,252.59457985895685L-173.8497189324347,90.51118840846942Z" fill="#97e3d5" stroke-width="1" stroke="rgb(141, 211, 198)"></path><path d="M-499.6475130596717,246.1208285526133A3,3,0,0,1,-503.685080261096,244.7475023822987A560,560,0,0,1,-505.59247090576804,240.78258525773848A3,3,0,0,1,-504.14549103902334,236.7708246789746L-176.62493435420248,84.96842098317269Z" fill="#e8c1a0" stroke-width="1" stroke="rgb(216, 180, 149)"></path><path d="M-507.1816204824417,230.20080681022765A3,3,0,0,1,-511.1717011888699,228.699566907497A560,560,0,0,1,-512.3296361192874,226.09366190558833A3,3,0,0,1,-510.76956991642953,222.1262120026833L-179.11331457420118,79.5890730078146Z" fill="#f47560" stroke-width="1" stroke="rgb(227, 109, 89)"></path><path d="M-513.6119183462002,215.47251551882738A3,3,0,0,1,-517.557026535001,213.85678451769567A560,560,0,0,1,-518.6392976750591,211.21855720348412A3,3,0,0,1,-516.9654177721064,207.2977675687483L-181.33494448282073,74.3884259103009Z" fill="#f1e15b" stroke-width="1" stroke="rgb(224, 210, 85)"></path><path d="M-519.6146202539373,200.56483747065877A3,3,0,0,1,-523.5114715147469,198.83596051133287A560,560,0,0,1,-524.5171778441489,196.16760728114488A3,3,0,0,1,-522.7308777918582,192.29674207908124L-183.40560809533883,69.1258484156179Z" fill="#e8a838" stroke-width="1" stroke="rgb(216, 156, 52)"></path><path d="M-525.1847287922959,185.49018371503632A3,3,0,0,1,-529.0300788899616,183.6496001348249A560,560,0,0,1,-529.9583831307083,180.95334246563505A3,3,0,0,1,-528.0611500726823,177.13562429729237L-185.323581527719,63.80572176332527Z" fill="#61cdbb" stroke-width="1" stroke="rgb(90, 191, 174)"></path><path d="M-530.3176066937193,170.2611043131134A3,3,0,0,1,-534.1082542692138,168.31034644813937A560,560,0,0,1,-534.95838358266,165.58842904813A3,3,0,0,1,-532.9517970172595,161.8270362681993L-187.08726801467188,58.432475104228885Z" fill="#97e3d5" stroke-width="1" stroke="rgb(141, 211, 198)"></path><path d="M-535.0089806971035,154.89027788961334A3,3,0,0,1,-538.7417699327443,152.83096979910204A560,560,0,0,1,-539.5130165630071,150.08565873888276A3,3,0,0,1,-537.3987470283763,146.38372280963003L-188.69519923900583,53.01058181299173Z" fill="#e8c1a0" stroke-width="1" stroke="rgb(216, 180, 149)"></path><path d="M-539.2549451054027,139.39050107752817A3,3,0,0,1,-542.9267683521558,137.22435719173373A560,560,0,0,1,-543.6184902153421,134.45793801777546A3,3,0,0,1,-541.398297898639,130.81854090201398L-190.1460365540413,47.544555763927264Z" fill="#f47560" stroke-width="1" stroke="rgb(227, 109, 89)"></path><path d="M-543.0536573657474,123.77738479425612A3,3,0,0,1,-546.6592736266954,121.50571409581362A560,560,0,0,1,-546.9405788779477,120.23312013191475A3,3,0,0,1,-544.6284198419531,116.65333285113348L-191.38010376568855,42.30432463276398Z" fill="#f1e15b" stroke-width="1" stroke="rgb(224, 210, 85)"></path><path d="M-546.0969163488073,109.57314323840426A3,3,0,0,1,-549.642064049527,107.20821529796811A560,560,0,0,1,-549.890086005885,105.9287180722977A3,3,0,0,1,-547.4853570850145,102.41044645110304L-192.4182565399733,37.29898859375434Z" fill="#e8a838" stroke-width="1" stroke="rgb(216, 156, 52)"></path><path d="M-548.7687118671425,95.29436835667276A3,3,0,0,1,-552.2509795440121,92.8377918343549A560,560,0,0,1,-552.4655494971523,91.55226168047155A3,3,0,0,1,-549.9698864247526,88.09789890096565L-193.32552347676153,32.26828121292063Z" fill="#61cdbb" stroke-width="1" stroke="rgb(90, 191, 174)"></path><path d="M-551.0672265246271,80.95077278985998A3,3,0,0,1,-554.4842454859773,78.40421868653777A560,560,0,0,1,-554.6652174821397,77.11353004169001A3,3,0,0,1,-552.0803178463569,73.72542581420464L-194.1012874392233,27.215624454272803Z" fill="#97e3d5" stroke-width="1" stroke="rgb(141, 211, 198)"></path><path d="M-552.9908968364784,66.55211327078445A3,3,0,0,1,-556.3403427738131,63.91731379146035A560,560,0,0,1,-556.4875937130815,62.62234460178111A3,3,0,0,1,-553.8152158021347,59.30280356656882L-194.74502074086075,22.14445521212294Z" fill="#e8c1a0" stroke-width="1" stroke="rgb(216, 180, 149)"></path><path d="M-554.5384142927646,52.10818398760627A3,3,0,0,1,-557.8180088617908,49.38693136313555A560,560,0,0,1,-557.9314385818268,48.08856248644968A3,3,0,0,1,-555.1734001879946,44.8398426460322L-195.25628550444833,17.05822297325716Z" fill="#f47560" stroke-width="1" stroke="rgb(227, 109, 89)"></path><path d="M-555.7087262484719,37.628809921670545A3,3,0,0,1,-558.9162386188641,34.822955189658465A560,560,0,0,1,-558.9957699630395,33.5220697963099A3,3,0,0,1,-556.1539471461693,30.34638097955041L-195.63473395988376,11.960387470542068Z" fill="#f1e15b" stroke-width="1" stroke="rgb(224, 210, 85)"></path><path d="M-556.50103663953,23.12384016440513A3,3,0,0,1,-559.6342850123758,20.235291910102877A560,560,0,0,1,-559.6798638822551,18.932774882208612A3,3,0,0,1,-556.7561896936392,15.832277241152376L-195.88010868074645,6.854416329561595Z" fill="#e8a838" stroke-width="1" stroke="rgb(216, 156, 52)"></path><path d="M-556.9148065243071,8.603141217818077A3,3,0,0,1,-559.9716596161996,5.6338642758739415A560,560,0,0,1,-559.9832550083397,4.330601605413722A3,3,0,0,1,-556.9797181758231,1.307404145919656L-195.99224275940287,1.7437827098850924Z" fill="#61cdbb" stroke-width="1" stroke="rgb(90, 191, 174)"></path><path d="M-556.9497544502077,-5.923409716847663A3,3,0,0,1,-559.928132942977,-8.971395598898834A560,560,0,0,1,-559.9057369700146,-10.274517412747953A3,3,0,0,1,-556.8243805452332,-13.218358265585138L-195.97105992053977,-3.3680370574288507Z" fill="#97e3d5" stroke-width="1" stroke="rgb(141, 211, 198)"></path><path d="M-556.605856645118,-20.445931457737483A3,3,0,0,1,-559.5037346002154,-23.570552993337422A560,560,0,0,1,-559.4473624962336,-24.872647547210917A3,3,0,0,1,-556.2902824648988,-27.7351293478729L-195.81657457304772,-8.477565834485903Z" fill="#e8c1a0" stroke-width="1" stroke="rgb(216, 180, 149)"></path><path d="M-555.883347033579,-34.95454556371593A3,3,0,0,1,-558.698753270151,-38.15367733756413A560,560,0,0,1,-558.6084433803161,-39.45385892685554A3,3,0,0,1,-555.3777872364928,-42.23303457149396L-195.52889180022,-13.581328041758303Z" fill="#f47560" stroke-width="1" stroke="rgb(227, 109, 89)"></path><path d="M-554.782717077665,-49.43938305383323A3,3,0,0,1,-557.5137365133813,-52.71084896762691A560,560,0,0,1,-557.3895502678599,-54.00823318895752A3,3,0,0,1,-554.0875155532092,-56.70221223984397L-195.10820728827343,-18.67585202222715Z" fill="#f1e15b" stroke-width="1" stroke="rgb(224, 210, 85)"></path><path d="M-553.3047154426858,-63.89059112035698A3,3,0,0,1,-555.949490396407,-67.23216587300637A560,560,0,0,1,-555.7915122685803,-68.5258702258099A3,3,0,0,1,-552.4203450775572,-71.13282019724056L-194.55480719323938,-23.757672402856535Z" fill="#e8a838" stroke-width="1" stroke="rgb(216, 156, 52)"></path><path d="M-551.4503474879314,-78.29833983080242A3,3,0,0,1,-554.0070789433319,-81.70775043211458A560,560,0,0,1,-553.815416392336,-82.99689491892752A3,3,0,0,1,-550.3774098443618,-85.51504252370778L-193.86906794631628,-28.82333245179322Z" fill="#61cdbb" stroke-width="1" stroke="rgb(90, 191, 174)"></path><path d="M-549.3436693463385,-92.67090518321254A2.879141075097002,2.879141075097002,0,1,1,-548.3565166876076,-98.3437559004573L-193.09822821590882,-33.601700252766804Z" fill="#97e3d5" stroke-width="1" stroke="rgb(141, 211, 198)"></path><path d="M-547.0345946358303,-105.44911564346118A2.87914107509701,2.87914107509701,0,1,1,-545.9154947439787,-111.09741813747138L-192.2626309741135,-38.09305357820306Z" fill="#e8c1a0" stroke-width="1" stroke="rgb(216, 180, 149)"></path><path d="M-544.4283293492925,-118.17003816666299A2.8791410750995015,2.8791410750995015,0,1,1,-543.1778902040425,-123.79072385222376L-191.32258212613465,-42.563711875122756Z" fill="#f47560" stroke-width="1" stroke="rgb(227, 109, 89)"></path><path d="M-541.5262894072054,-130.8267617853428A2.879141075097003,2.879141075097003,0,1,1,-540.1451903417009,-136.4167770807643L-190.27859237762297,-47.011246343725084Z" fill="#f1e15b" stroke-width="1" stroke="rgb(224, 210, 85)"></path><path d="M-538.3300514172028,-143.4124104097236A2.8791410750970052,2.8791410750970052,0,1,1,-536.8190427489378,-148.96871839580683L-189.1312289027897,-51.43324074682215Z" fill="#e8a838" stroke-width="1" stroke="rgb(216, 156, 52)"></path><path d="M-534.8413518175649,-155.92014656334476A2.8791410750970066,2.8791410750970066,0,1,1,-533.2012544407589,-161.43972863324623L-187.88111503627465,-55.82729272252181Z" fill="#61cdbb" stroke-width="1" stroke="rgb(90, 191, 174)"></path><path d="M-531.0620859338411,-168.34317509769332A2.879141075097004,2.879141075097004,0,1,1,-529.2937908734657,-173.8230325968657L-186.5289299345036,-60.19101508937236Z" fill="#97e3d5" stroke-width="1" stroke="rgb(141, 211, 198)"></path><path d="M-526.9943069491684,-180.67474688384328A2.879141075097005,2.879141075097005,0,1,1,-525.0987748768753,-186.11190273913124L-185.07540820671923,-64.5220371432601Z" fill="#e8c1a0" stroke-width="1" stroke="rgb(216, 180, 149)"></path><path d="M-522.6402247888265,-192.90816247909336A2.8791410750970083,2.8791410750970083,0,1,1,-520.6184855010379,-198.29966281610498L-183.52133951588587,-68.81800594535524Z" fill="#f47560" stroke-width="1" stroke="rgb(227, 109, 89)"></path><path d="M-518.0022049196368,-205.03677576660968A2.8791410750995032,2.8791410750995032,0,1,1,-515.8553567780806,-210.3796915144891L-181.8675681496846,-73.07658760040614Z" fill="#f1e15b" stroke-width="1" stroke="rgb(224, 210, 85)"></path><path d="M-513.0827670648749,-217.0539975661044A2.8791410750970003,2.8791410750970003,0,1,1,-510.81197639987846,-222.3454260488063L-180.1149925618325,-77.29546852468786Z" fill="#e8a838" stroke-width="1" stroke="rgb(216, 156, 52)"></path><path d="M-507.88458383534373,-228.9532992135683A2.8791410750945,2.8791410750945,0,1,1,-505.49108431218616,-234.19036572683416L-178.2645648839747,-81.4723567029159Z" fill="#61cdbb" stroke-width="1" stroke="rgb(90, 191, 174)"></path><path d="M-502.4104792774214,-240.72821610813918A2.879141075096991,2.879141075096991,0,1,1,-499.8955712261124,-245.90807548125392L-176.3172904084142,-85.60498293344217Z" fill="#97e3d5" stroke-width="1" stroke="rgb(141, 211, 198)"></path><path d="M-496.663427338835,-252.37235122416675A2.8791410750995006,2.8791410750995006,0,1,1,-494.0284770476854,-257.49218936565245L-174.27422704196118,-89.69110206105714Z" fill="#e8c1a0" stroke-width="1" stroke="rgb(216, 180, 149)"></path><path d="M-490.64655025297543,-263.87937858655584A2.8791410750994952,2.8791410750994952,0,1,1,-487.8929892263247,-268.93641401300397L-172.13648473119795,-93.72849419672788Z" fill="#f47560" stroke-width="1" stroke="rgb(227, 109, 89)"></path><path d="M-484.3631168426639,-275.24304670751474A2.879141075097024,2.879141075097024,0,1,1,-481.4924410231763,-280.23453205470287L-169.9052248594721,-97.71496592360984Z" fill="#f1e15b" stroke-width="1" stroke="rgb(224, 210, 85)"></path><path d="M-477.8165407442806,-286.4571819828354A2.87914107509451,2.87914107509451,0,1,1,-474.8303097002337,-291.3804054983075L-167.58165961594497,-101.64835148867665Z" fill="#e8a838" stroke-width="1" stroke="rgb(216, 156, 52)"></path><path d="M-471.01037855321874,-297.5156920458628A2.879141075097003,2.879141075097003,0,1,1,-467.91021463122473,-302.3679790621625L-165.16705133703914,-105.52651397932124Z" fill="#61cdbb" stroke-width="1" stroke="rgb(90, 191, 174)"></path><path d="M-463.9483278916867,-308.412569077337A2.8791410750970012,2.8791410750970012,0,1,1,-460.7359153353238,-313.1912834650679L-162.6627118206414,-109.34734648428818Z" fill="#97e3d5" stroke-width="1" stroke="rgb(141, 211, 198)"></path><path d="M-456.634225399857,-319.141893069282A2.8791410750994952,2.8791410750994952,0,1,1,-453.31130943464825,-323.84443866927376L-160.07000161343518,-113.10877323830746Z" fill="#e8c1a0" stroke-width="1" stroke="rgb(216, 180, 149)"></path><path d="M-449.07204465153535,-329.6978350412155A2.879141075097007,2.879141075097007,0,1,1,-445.64043053682377,-334.32165707493357L-157.39032927174856,-116.80875074980712Z" fill="#f47560" stroke-width="1" stroke="rgb(227, 109, 89)"></path><path d="M-441.26589399539176,-340.07466020687696A2.879141075096997,2.879141075096997,0,1,1,-437.72744604356984,-344.61724666439545L-154.62515059631997,-120.44526891109246Z" fill="#f1e15b" stroke-width="1" stroke="rgb(224, 210, 85)"></path><path d="M-433.22001432301306,-350.26673108980935A2.879141075099502,2.879141075099502,0,1,1,-429.5766548866954,-354.72561409451316L-151.77596784139692,-124.01635209038868Z" fill="#e8a838" stroke-width="1" stroke="rgb(216, 156, 52)"></path><path d="M-424.93877676492923,-360.26851058606394A2.879141075097004,2.879141075097004,0,1,1,-421.19248519259514,-364.641267735374L-148.84432889859806,-127.52006020515346Z" fill="#61cdbb" stroke-width="1" stroke="rgb(90, 191, 174)"></path><path d="M-416.42668031586777,-370.07456497235967A2.879141075097025,2.879141075097025,0,1,1,-412.57949187651036,-374.358820653789L-145.83182645598131,-130.9544897760766Z" fill="#97e3d5" stroke-width="1" stroke="rgb(141, 211, 198)"></path><path d="M-407.5832108077532,-379.5973926135056A3,3,0,0,1,-407.7372346587221,-383.86240695444275A560,560,0,0,1,-6.659976557635032,-559.960395664061A3,3,0,0,1,-3.624298111790507,-556.9606078301464L-3.624298111793645,-198.88971485354912A3,3,0,0,1,-6.52443432116359,-195.89137744369665A196,196,0,0,0,-139.80031075609634,-137.3749362602178A3,3,0,0,1,-143.97039419420878,-137.26900526664195Z" fill="#e8c1a0" stroke-width="1" stroke="rgb(216, 180, 149)"></path><path d="M251.1264539132408,-500.53521768698846L258.3014954536191,-514.8362239066167L282.3014954536191,-514.8362239066167" fill="none" stroke-width="1" style="fill: none; stroke: rgb(232, 193, 160);"></path><g transform="translate(288.3014954536191, -514.8362239066167)"><text text-anchor="start" dominant-baseline="central" style="font-family: sans-serif; font-size: 11px; fill: rgb(51, 51, 51);">Siemens</text></g><path d="M511.7025184734192,-227.5094120865334L526.3225904298026,-234.0096810032915L550.3225904298026,-234.0096810032915" fill="none" stroke-width="1" style="fill: none; stroke: rgb(244, 117, 96);"></path><g transform="translate(556.3225904298026, -234.0096810032915)"><text text-anchor="start" dominant-baseline="central" style="font-family: sans-serif; font-size: 11px; fill: rgb(51, 51, 51);">Schneider Electric</text></g><path d="M559.8454978695746,-13.153650260217562L575.8410835229911,-13.52946883908092L599.8410835229911,-13.52946883908092" fill="none" stroke-width="1" style="fill: none; stroke: rgb(241, 225, 91);"></path><g transform="translate(605.8410835229911, -13.52946883908092)"><text text-anchor="start" dominant-baseline="central" style="font-family: sans-serif; font-size: 11px; fill: rgb(51, 51, 51);">Rockwell Automation</text></g><path d="M535.3344623094913,164.3685294203479L550.629732661191,169.06477311807214L574.629732661191,169.06477311807214" fill="none" stroke-width="1" style="fill: none; stroke: rgb(232, 168, 56);"></path><g transform="translate(580.629732661191, 169.06477311807214)"><text text-anchor="start" dominant-baseline="central" style="font-family: sans-serif; font-size: 11px; fill: rgb(51, 51, 51);">Advantech</text></g><path d="M478.23142596628753,291.36695629094817L491.89518099389574,299.69172647068956L515.8951809938958,299.69172647068956" fill="none" stroke-width="1" style="fill: none; stroke: rgb(97, 205, 187);"></path><g transform="translate(521.8951809938958, 299.69172647068956)"><text text-anchor="start" dominant-baseline="central" style="font-family: sans-serif; font-size: 11px; fill: rgb(51, 51, 51);">Moxa</text></g><path d="M423.47140787462354,366.43139427822535L435.5705909567556,376.90086268617466L459.5705909567556,376.90086268617466" fill="none" stroke-width="1" style="fill: none; stroke: rgb(151, 227, 213);"></path><g transform="translate(465.5705909567556, 376.90086268617466)"><text text-anchor="start" dominant-baseline="central" style="font-family: sans-serif; font-size: 11px; fill: rgb(51, 51, 51);">GE</text></g><path d="M373.52747888467206,417.22562543312324L384.19969256709123,429.14635758835533L408.19969256709123,429.14635758835533" fill="none" stroke-width="1" style="fill: none; stroke: rgb(232, 193, 160);"></path><g transform="translate(414.19969256709123, 429.14635758835533)"><text text-anchor="start" dominant-baseline="central" style="font-family: sans-serif; font-size: 11px; fill: rgb(51, 51, 51);">Philips</text></g><path d="M326.43229843112283,455.0186309822647L335.7589355291549,468.0191632960437L359.7589355291549,468.0191632960437" fill="none" stroke-width="1" style="fill: none; stroke: rgb(244, 117, 96);"></path><g transform="translate(365.7589355291549, 468.0191632960437)"><text text-anchor="start" dominant-baseline="central" style="font-family: sans-serif; font-size: 11px; fill: rgb(51, 51, 51);">ABB</text></g><path d="M285.62009379743586,481.68575027619823L293.780667905934,495.4482002840896L317.780667905934,495.4482002840896" fill="none" stroke-width="1" style="fill: none; stroke: rgb(241, 225, 91);"></path><g transform="translate(323.780667905934, 495.4482002840896)"><text text-anchor="start" dominant-baseline="central" style="font-family: sans-serif; font-size: 11px; fill: rgb(51, 51, 51);">Emerson</text></g><path d="M245.43838307440257,503.34878574783795L252.45090830509977,517.7301796263475L276.4509083050998,517.7301796263475" fill="none" stroke-width="1" style="fill: none; stroke: rgb(232, 168, 56);"></path><g transform="translate(282.4509083050998, 517.7301796263475)"><text text-anchor="start" dominant-baseline="central" style="font-family: sans-serif; font-size: 11px; fill: rgb(51, 51, 51);">Yokogawa</text></g><path d="M204.3488087498343,521.3842770572619L210.1873461426867,536.2809706874694L234.1873461426867,536.2809706874694" fill="none" stroke-width="1" style="fill: none; stroke: rgb(97, 205, 187);"></path><g transform="translate(240.1873461426867, 536.2809706874694)"><text text-anchor="start" dominant-baseline="central" style="font-family: sans-serif; font-size: 11px; fill: rgb(51, 51, 51);">PHOENIX CONTACT</text></g><path d="M163.43294214709678,535.6208298984868L168.10245477987098,550.9242821813007L192.10245477987098,550.9242821813007" fill="none" stroke-width="1" style="fill: none; stroke: rgb(151, 227, 213);"></path><g transform="translate(198.10245477987098, 550.9242821813007)"><text text-anchor="start" dominant-baseline="central" style="font-family: sans-serif; font-size: 11px; fill: rgb(51, 51, 51);">OSIsoft</text></g><path d="M123.0543136446855,546.312763802417L126.57015117739078,561.9216999110574L150.57015117739078,561.9216999110574" fill="none" stroke-width="1" style="fill: none; stroke: rgb(232, 193, 160);"></path><g transform="translate(156.57015117739078, 561.9216999110574)"><text text-anchor="start" dominant-baseline="central" style="font-family: sans-serif; font-size: 11px; fill: rgb(51, 51, 51);">Delta Electronics</text></g><path d="M83.5268165079811,553.7357410570877L85.9132969796377,569.5567622301473L109.9132969796377,569.5567622301473" fill="none" stroke-width="1" style="fill: none; stroke: rgb(244, 117, 96);"></path><g transform="translate(115.9132969796377, 569.5567622301473)"><text text-anchor="start" dominant-baseline="central" style="font-family: sans-serif; font-size: 11px; fill: rgb(51, 51, 51);">Honeywell</text></g><path d="M45.89026557132323,558.1165501271158L47.20141601621818,574.0627372736049L71.20141601621819,574.0627372736049" fill="none" stroke-width="1" style="fill: none; stroke: rgb(241, 225, 91);"></path><g transform="translate(77.20141601621819, 574.0627372736049)"><text text-anchor="start" dominant-baseline="central" style="font-family: sans-serif; font-size: 11px; fill: rgb(51, 51, 51);">Hospira</text></g><path d="M9.59623955536016,559.917772700953L9.870417828370451,575.9154233495517L33.87041782837045,575.9154233495517" fill="none" stroke-width="1" style="fill: none; stroke: rgb(232, 168, 56);"></path><g transform="translate(39.87041782837045, 575.9154233495517)"><text text-anchor="start" dominant-baseline="central" style="font-family: sans-serif; font-size: 11px; fill: rgb(51, 51, 51);">Fuji Electric</text></g><path d="M-26.73819411784563,559.3613045030165L-27.502142521212647,575.3430560602455L-51.50214252121265,575.3430560602455" fill="none" stroke-width="1" style="fill: none; stroke: rgb(97, 205, 187);"></path><g transform="translate(-57.50214252121265, 575.3430560602455)"><text text-anchor="end" dominant-baseline="central" style="font-family: sans-serif; font-size: 11px; fill: rgb(51, 51, 51);">Ecava</text></g><path d="M-62.96003912785996,556.4494886986763L-64.75889738865595,572.3480455186385L-88.75889738865595,572.3480455186385" fill="none" stroke-width="1" style="fill: none; stroke: rgb(151, 227, 213);"></path><g transform="translate(-94.75889738865595, 572.3480455186385)"><text text-anchor="end" dominant-baseline="central" style="font-family: sans-serif; font-size: 11px; fill: rgb(51, 51, 51);">LCDS - Leão Consultoria e Desenvolvimento de Sistemas Ltda ME</text></g><path d="M-98.15248176397046,551.3311983949153L-100.95683838579819,567.0835183490558L-124.95683838579819,567.0835183490558" fill="none" stroke-width="1" style="fill: none; stroke: rgb(232, 193, 160);"></path><g transform="translate(-130.9568383857982, 567.0835183490558)"><text text-anchor="end" dominant-baseline="central" style="font-family: sans-serif; font-size: 11px; fill: rgb(51, 51, 51);">WECON</text></g><path d="M-131.44016558605293,544.3560258421974L-135.19559888851157,559.9090551519744L-159.19559888851157,559.9090551519744" fill="none" stroke-width="1" style="fill: none; stroke: rgb(244, 117, 96);"></path><g transform="translate(-165.19559888851157, 559.9090551519744)"><text text-anchor="end" dominant-baseline="central" style="font-family: sans-serif; font-size: 11px; fill: rgb(51, 51, 51);">3S-Smart Software Solutions</text></g><path d="M-162.75787695456492,535.8263463933466L-167.40810201040964,551.1356705760137L-191.40810201040964,551.1356705760137" fill="none" stroke-width="1" style="fill: none; stroke: rgb(241, 225, 91);"></path><g transform="translate(-197.40810201040964, 551.1356705760137)"><text text-anchor="end" dominant-baseline="central" style="font-family: sans-serif; font-size: 11px; fill: rgb(51, 51, 51);">Omron</text></g><path d="M-191.34142385438247,526.2969309404888L-196.8083216787934,541.333986110217L-220.8083216787934,541.333986110217" fill="none" stroke-width="1" style="fill: none; stroke: rgb(232, 168, 56);"></path><g transform="translate(-226.8083216787934, 541.333986110217)"><text text-anchor="end" dominant-baseline="central" style="font-family: sans-serif; font-size: 11px; fill: rgb(51, 51, 51);">WellinTech</text></g><path d="M-217.22611216157523,516.15193131012L-223.4325725090488,530.8991293475519L-247.4325725090488,530.8991293475519" fill="none" stroke-width="1" style="fill: none; stroke: rgb(97, 205, 187);"></path><g transform="translate(-253.4325725090488, 530.8991293475519)"><text text-anchor="end" dominant-baseline="central" style="font-family: sans-serif; font-size: 11px; fill: rgb(51, 51, 51);">Invensys</text></g><path d="M-241.17490079159455,505.4054483562326L-248.06561224278298,519.8456040235535L-272.065612242783,519.8456040235535" fill="none" stroke-width="1" style="fill: none; stroke: rgb(151, 227, 213);"></path><g transform="translate(-278.065612242783, 519.8456040235535)"><text text-anchor="end" dominant-baseline="central" style="font-family: sans-serif; font-size: 11px; fill: rgb(51, 51, 51);">Medtronic</text></g><path d="M-263.2242246188916,494.28029252012806L-270.7449167508599,508.4025865921317L-294.7449167508599,508.4025865921317" fill="none" stroke-width="1" style="fill: none; stroke: rgb(232, 193, 160);"></path><g transform="translate(-300.7449167508599, 508.4025865921317)"><text text-anchor="end" dominant-baseline="central" style="font-family: sans-serif; font-size: 11px; fill: rgb(51, 51, 51);">Other</text></g><path d="M-283.4234301503828,482.98153095309044L-291.52124244039373,496.7810032660359L-315.52124244039373,496.7810032660359" fill="none" stroke-width="1" style="fill: none; stroke: rgb(244, 117, 96);"></path><g transform="translate(-321.52124244039373, 496.7810032660359)"><text text-anchor="end" dominant-baseline="central" style="font-family: sans-serif; font-size: 11px; fill: rgb(51, 51, 51);">Cogent Real-Time Systems Inc</text></g><path d="M-302.485405454004,471.2776034221516L-311.12784560983266,484.7426778056417L-335.12784560983266,484.7426778056417" fill="none" stroke-width="1" style="fill: none; stroke: rgb(241, 225, 91);"></path><g transform="translate(-341.12784560983266, 484.7426778056417)"><text text-anchor="end" dominant-baseline="central" style="font-family: sans-serif; font-size: 11px; fill: rgb(51, 51, 51);">Smiths Medical</text></g><path d="M-320.42833707556434,459.26645947531216L-329.58343242058044,472.38835831746394L-353.58343242058044,472.38835831746394" fill="none" stroke-width="1" style="fill: none; stroke: rgb(232, 168, 56);"></path><g transform="translate(-359.58343242058044, 472.38835831746394)"><text text-anchor="end" dominant-baseline="central" style="font-family: sans-serif; font-size: 11px; fill: rgb(51, 51, 51);">Belden</text></g><path d="M-337.2754315941706,447.0405834406603L-346.9118724968612,459.8131715389649L-370.9118724968612,459.8131715389649" fill="none" stroke-width="1" style="fill: none; stroke: rgb(97, 205, 187);"></path><g transform="translate(-376.9118724968612, 459.8131715389649)"><text text-anchor="end" dominant-baseline="central" style="font-family: sans-serif; font-size: 11px; fill: rgb(51, 51, 51);">NUUO</text></g><path d="M-353.6565174687408,434.1970378202531L-363.76098939641906,446.60266747226035L-387.76098939641906,446.60266747226035" fill="none" stroke-width="1" style="fill: none; stroke: rgb(151, 227, 213);"></path><g transform="translate(-393.76098939641906, 446.60266747226035)"><text text-anchor="end" dominant-baseline="central" style="font-family: sans-serif; font-size: 11px; fill: rgb(51, 51, 51);">Trihedral Engineering Limited</text></g><path d="M-369.54896118701413,420.7535683575348L-380.1075029352145,432.77509888203576L-404.1075029352145,432.77509888203576" fill="none" stroke-width="1" style="fill: none; stroke: rgb(232, 193, 160);"></path><g transform="translate(-410.1075029352145, 432.77509888203576)"><text text-anchor="end" dominant-baseline="central" style="font-family: sans-serif; font-size: 11px; fill: rgb(51, 51, 51);">Becton, Dickinson and Company (BD)</text></g><path d="M-384.9308043866144,406.72874970214974L-395.9288273690891,418.34957112221116L-419.9288273690891,418.34957112221116" fill="none" stroke-width="1" style="fill: none; stroke: rgb(244, 117, 96);"></path><g transform="translate(-425.9288273690891, 418.34957112221116)"><text text-anchor="end" dominant-baseline="central" style="font-family: sans-serif; font-size: 11px; fill: rgb(51, 51, 51);">Geutebrück</text></g><path d="M-399.2367299564269,392.6958536242763L-410.6434936694677,403.91573515639845L-434.6434936694677,403.91573515639845" fill="none" stroke-width="1" style="fill: none; stroke: rgb(241, 225, 91);"></path><g transform="translate(-440.6434936694677, 403.91573515639845)"><text text-anchor="end" dominant-baseline="central" style="font-family: sans-serif; font-size: 11px; fill: rgb(51, 51, 51);">AVEVA</text></g><path d="M-412.50671941052735,378.7323678287406L-424.2926256793996,389.5532926238475L-448.2926256793996,389.5532926238475" fill="none" stroke-width="1" style="fill: none; stroke: rgb(232, 168, 56);"></path><g transform="translate(-454.2926256793996, 389.5532926238475)"><text text-anchor="end" dominant-baseline="central" style="font-family: sans-serif; font-size: 11px; fill: rgb(51, 51, 51);">Tridium</text></g><path d="M-425.2886045594697,364.32074169865626L-437.43970754688314,374.72990574718926L-461.43970754688314,374.72990574718926" fill="none" stroke-width="1" style="fill: none; stroke: rgb(97, 205, 187);"></path><g transform="translate(-467.43970754688314, 374.72990574718926)"><text text-anchor="end" dominant-baseline="central" style="font-family: sans-serif; font-size: 11px; fill: rgb(51, 51, 51);">Natus Medical, Inc.</text></g><path d="M-437.56726106011985,349.4780279908093L-450.0691828046947,359.46311450483245L-474.0691828046947,359.46311450483245" fill="none" stroke-width="1" style="fill: none; stroke: rgb(151, 227, 213);"></path><g transform="translate(-480.0691828046947, 359.46311450483245)"><text text-anchor="end" dominant-baseline="central" style="font-family: sans-serif; font-size: 11px; fill: rgb(51, 51, 51);">Eaton</text></g><path d="M-449.3281600216328,334.22178955234796L-462.1661074508223,343.7709835395579L-486.1661074508223,343.7709835395579" fill="none" stroke-width="1" style="fill: none; stroke: rgb(232, 193, 160);"></path><g transform="translate(-492.1661074508223, 343.7709835395579)"><text text-anchor="end" dominant-baseline="central" style="font-family: sans-serif; font-size: 11px; fill: rgb(51, 51, 51);">WAGO</text></g><path d="M-460.1152653028712,319.2083060248722L-473.2614157400961,328.32854333986853L-497.2614157400961,328.32854333986853" fill="none" stroke-width="1" style="fill: none; stroke: rgb(244, 117, 96);"></path><g transform="translate(-503.2614157400961, 328.32854333986853)"><text text-anchor="end" dominant-baseline="central" style="font-family: sans-serif; font-size: 11px; fill: rgb(51, 51, 51);">Certec EDV GmbH</text></g><path d="M-469.97921290077227,304.4988332344979L-483.4071904122229,313.1987998983407L-507.4071904122229,313.1987998983407" fill="none" stroke-width="1" style="fill: none; stroke: rgb(241, 225, 91);"></path><g transform="translate(-513.4071904122229, 313.1987998983407)"><text text-anchor="end" dominant-baseline="central" style="font-family: sans-serif; font-size: 11px; fill: rgb(51, 51, 51);">Tollgrade Communications, Inc.</text></g><path d="M-479.373082296423,289.4847974758379L-493.06945607632076,297.7557916894333L-517.0694560763208,297.7557916894333" fill="none" stroke-width="1" style="fill: none; stroke: rgb(232, 168, 56);"></path><g transform="translate(-523.0694560763208, 297.7557916894333)"><text text-anchor="end" dominant-baseline="central" style="font-family: sans-serif; font-size: 11px; fill: rgb(51, 51, 51);">Gemalto</text></g><path d="M-488.28747764184544,274.1812159469797L-502.23854843161246,282.0149649740363L-526.2385484316125,282.0149649740363" fill="none" stroke-width="1" style="fill: none; stroke: rgb(97, 205, 187);"></path><g transform="translate(-532.2385484316125, 282.0149649740363)"><text text-anchor="end" dominant-baseline="central" style="font-family: sans-serif; font-size: 11px; fill: rgb(51, 51, 51);">Schweitzer Engineering Laboratories</text></g><path d="M-496.7134826640991,258.60339545277L-510.9052964545019,265.9920638942777L-534.9052964545019,265.9920638942777" fill="none" stroke-width="1" style="fill: none; stroke: rgb(151, 227, 213);"></path><g transform="translate(-540.9052964545019, 265.9920638942777)"><text text-anchor="end" dominant-baseline="central" style="font-family: sans-serif; font-size: 11px; fill: rgb(51, 51, 51);">Janitza</text></g><path d="M-504.6426695834358,242.7669170947789L-519.0610315715339,249.70311472605832L-543.0610315715339,249.70311472605832" fill="none" stroke-width="1" style="fill: none; stroke: rgb(232, 193, 160);"></path><g transform="translate(-549.0610315715339, 249.70311472605832)"><text text-anchor="end" dominant-baseline="central" style="font-family: sans-serif; font-size: 11px; fill: rgb(51, 51, 51);">Infinite Automation Systems</text></g><path d="M-511.75232735486054,227.3973514508989L-526.3738224221423,233.8944186352103L-550.3738224221423,233.8944186352103" fill="none" stroke-width="1" style="fill: none; stroke: rgb(244, 117, 96);"></path><g transform="translate(-556.3738224221423, 233.8944186352103)"><text text-anchor="end" dominant-baseline="central" style="font-family: sans-serif; font-size: 11px; fill: rgb(51, 51, 51);">Sierra Wireless</text></g><path d="M-518.0998413794878,212.53835974371685L-532.9026939903304,218.61088430782306L-556.9026939903304,218.61088430782306" fill="none" stroke-width="1" style="fill: none; stroke: rgb(241, 225, 91);"></path><g transform="translate(-562.9026939903304, 218.61088430782306)"><text text-anchor="end" dominant-baseline="central" style="font-family: sans-serif; font-size: 11px; fill: rgb(51, 51, 51);">eWON sa</text></g><path d="M-524.0160231295396,197.5024240446226L-538.9879095046692,203.14535044589752L-562.9879095046692,203.14535044589752" fill="none" stroke-width="1" style="fill: none; stroke: rgb(232, 168, 56);"></path><g transform="translate(-568.9879095046692, 203.14535044589752)"><text text-anchor="end" dominant-baseline="central" style="font-family: sans-serif; font-size: 11px; fill: rgb(51, 51, 51);">MatrikonOPC</text></g><path d="M-529.4959472220544,182.30206218092934L-544.6244028569702,187.5106925289559L-568.6244028569702,187.5106925289559" fill="none" stroke-width="1" style="fill: none; stroke: rgb(97, 205, 187);"></path><g transform="translate(-574.6244028569702, 187.5106925289559)"><text text-anchor="end" dominant-baseline="central" style="font-family: sans-serif; font-size: 11px; fill: rgb(51, 51, 51);">Inductive Automation</text></g><path d="M-534.5350514704911,166.9499288692254L-549.8074815125051,171.71992683691755L-573.8074815125051,171.71992683691755" fill="none" stroke-width="1" style="fill: none; stroke: rgb(151, 227, 213);"></path><g transform="translate(-579.8074815125051, 171.71992683691755)"><text text-anchor="end" dominant-baseline="central" style="font-family: sans-serif; font-size: 11px; fill: rgb(51, 51, 51);">Wind River</text></g><path d="M-539.1291406828738,151.45880517997637L-554.5328304166702,155.78619961368997L-578.5328304166702,155.78619961368997" fill="none" stroke-width="1" style="fill: none; stroke: rgb(232, 193, 160);"></path><g transform="translate(-584.5328304166702, 155.78619961368997)"><text text-anchor="end" dominant-baseline="central" style="font-family: sans-serif; font-size: 11px; fill: rgb(51, 51, 51);">IOServer</text></g><path d="M-543.2743901544037,135.84158789693504L-558.7965155873867,139.72277612256175L-582.7965155873867,139.72277612256175" fill="none" stroke-width="1" style="fill: none; stroke: rgb(244, 117, 96);"></path><g transform="translate(-588.7965155873867, 139.72277612256175)"><text text-anchor="end" dominant-baseline="central" style="font-family: sans-serif; font-size: 11px; fill: rgb(51, 51, 51);">Sielco Sistemi</text></g><path d="M-546.8002964733959,120.86949895075398L-562.4231620869215,124.32291320648982L-586.4231620869215,124.32291320648982" fill="none" stroke-width="1" style="fill: none; stroke: rgb(241, 225, 91);"></path><g transform="translate(-592.4231620869215, 124.32291320648982)"><text text-anchor="end" dominant-baseline="central" style="font-family: sans-serif; font-size: 11px; fill: rgb(51, 51, 51);">Pro-face</text></g><path d="M-549.7664472570666,106.56853883929836L-565.4740600358399,109.61335423470688L-589.4740600358399,109.61335423470688" fill="none" stroke-width="1" style="fill: none; stroke: rgb(232, 168, 56);"></path><g transform="translate(-595.4740600358399, 109.61335423470688)"><text text-anchor="end" dominant-baseline="central" style="font-family: sans-serif; font-size: 11px; fill: rgb(51, 51, 51);">Vecna</text></g><path d="M-552.358638505033,92.19508917977296L-568.1403138908911,94.82923458490933L-592.1403138908911,94.82923458490933" fill="none" stroke-width="1" style="fill: none; stroke: rgb(97, 205, 187);"></path><g transform="translate(-598.1403138908911, 94.82923458490933)"><text text-anchor="end" dominant-baseline="central" style="font-family: sans-serif; font-size: 11px; fill: rgb(51, 51, 51);">LOYTEC</text></g><path d="M-554.5751069692094,77.75892701220826L-570.4201100254726,79.9806106411285L-594.4201100254726,79.9806106411285" fill="none" stroke-width="1" style="fill: none; stroke: rgb(151, 227, 213);"></path><g transform="translate(-600.4201100254726, 79.9806106411285)"><text text-anchor="end" dominant-baseline="central" style="font-family: sans-serif; font-size: 11px; fill: rgb(51, 51, 51);">Digital Electronics</text></g><path d="M-556.4143449738879,63.26987203463672L-572.3118976874275,65.07758266419778L-596.3118976874275,65.07758266419778" fill="none" stroke-width="1" style="fill: none; stroke: rgb(232, 193, 160);"></path><g transform="translate(-602.3118976874275, 65.07758266419778)"><text text-anchor="end" dominant-baseline="central" style="font-family: sans-serif; font-size: 11px; fill: rgb(51, 51, 51);">GarrettCom</text></g><path d="M-557.875101441281,48.73777992359213L-573.814390053889,50.13028792140904L-597.814390053889,50.13028792140904" fill="none" stroke-width="1" style="fill: none; stroke: rgb(244, 117, 96);"></path><g transform="translate(-603.814390053889, 50.13028792140904)"><text text-anchor="end" dominant-baseline="central" style="font-family: sans-serif; font-size: 11px; fill: rgb(51, 51, 51);">Carlo Gavazzi</text></g><path d="M-558.9563827425251,34.172535630119945L-574.9265651065972,35.148893790980516L-598.9265651065972,35.148893790980516" fill="none" stroke-width="1" style="fill: none; stroke: rgb(241, 225, 91);"></path><g transform="translate(-604.9265651065972, 35.148893790980516)"><text text-anchor="end" dominant-baseline="central" style="font-family: sans-serif; font-size: 11px; fill: rgb(51, 51, 51);">Fatek</text></g><path d="M-559.6574533735613,19.58404665589052L-575.6476663270917,20.14359084605882L-599.6476663270917,20.14359084605882" fill="none" stroke-width="1" style="fill: none; stroke: rgb(232, 168, 56);"></path><g transform="translate(-605.6476663270917, 20.14359084605882)"><text text-anchor="end" dominant-baseline="central" style="font-family: sans-serif; font-size: 11px; fill: rgb(51, 51, 51);">SpiderControl</text></g><path d="M-559.9778364554368,4.982236313957158L-575.9772032113063,5.124585922927363L-599.9772032113063,5.124585922927363" fill="none" stroke-width="1" style="fill: none; stroke: rgb(97, 205, 187);"></path><g transform="translate(-605.9772032113063, 5.124585922927363)"><text text-anchor="end" dominant-baseline="central" style="font-family: sans-serif; font-size: 11px; fill: rgb(51, 51, 51);">Roche</text></g><path d="M-559.9173140586851,-9.622963021225177L-575.9149516032189,-9.897904821831611L-599.9149516032189,-9.897904821831611" fill="none" stroke-width="1" style="fill: none; stroke: rgb(151, 227, 213);"></path><g transform="translate(-605.9149516032189, -9.897904821831611)"><text text-anchor="end" dominant-baseline="central" style="font-family: sans-serif; font-size: 11px; fill: rgb(51, 51, 51);">ProMinent</text></g><path d="M-559.4759273515649,-24.22161666996011L-575.4609538473238,-24.913662860530398L-599.4609538473238,-24.913662860530398" fill="none" stroke-width="1" style="fill: none; stroke: rgb(232, 193, 160);"></path><g transform="translate(-605.4609538473238, -24.913662860530398)"><text text-anchor="end" dominant-baseline="central" style="font-family: sans-serif; font-size: 11px; fill: rgb(51, 51, 51);">BINOM3</text></g><path d="M-558.6539765720572,-38.803794405023616L-574.6155187598304,-39.91247424516715L-598.6155187598304,-39.91247424516715" fill="none" stroke-width="1" style="fill: none; stroke: rgb(244, 117, 96);"></path><g transform="translate(-604.6155187598304, -39.91247424516715)"><text text-anchor="end" dominant-baseline="central" style="font-family: sans-serif; font-size: 11px; fill: rgb(51, 51, 51);">Hirschmann</text></g><path d="M-557.4520208236383,-53.359577206363674L-573.3792214185994,-54.884136555116925L-597.3792214185994,-54.884136555116925" fill="none" stroke-width="1" style="fill: none; stroke: rgb(241, 225, 91);"></path><g transform="translate(-603.3792214185994, -54.884136555116925)"><text text-anchor="end" dominant-baseline="central" style="font-family: sans-serif; font-size: 11px; fill: rgb(51, 51, 51);">Johnson Controls</text></g><path d="M-555.8708776949696,-67.87906400816142L-571.7529027719688,-69.81846583696603L-595.7529027719688,-69.81846583696603" fill="none" stroke-width="1" style="fill: none; stroke: rgb(232, 168, 56);"></path><g transform="translate(-601.7529027719688, -69.81846583696603)"><text text-anchor="end" dominant-baseline="central" style="font-family: sans-serif; font-size: 11px; fill: rgb(51, 51, 51);">Omron Corporation</text></g><path d="M-553.9116227037607,-82.3523784336953L-569.7376690667254,-84.70530353180088L-593.7376690667254,-84.70530353180088" fill="none" stroke-width="1" style="fill: none; stroke: rgb(97, 205, 187);"></path><g transform="translate(-599.7376690667254, -84.70530353180088)"><text text-anchor="end" dominant-baseline="central" style="font-family: sans-serif; font-size: 11px; fill: rgb(51, 51, 51);">Adcon Telemetry</text></g><path d="M-551.7092234740252,-96.00485786504815L-567.4723441447117,-98.74785380404953L-591.4723441447117,-98.74785380404953" fill="none" stroke-width="1" style="fill: none; stroke: rgb(151, 227, 213);"></path><g transform="translate(-597.4723441447117, -98.74785380404953)"><text text-anchor="end" dominant-baseline="central" style="font-family: sans-serif; font-size: 11px; fill: rgb(51, 51, 51);">Panasonic Electric Works Europe AG</text></g><path d="M-549.3218027831814,-108.83729593772317L-565.0167114341294,-111.94693296451526L-589.0167114341294,-111.94693296451526" fill="none" stroke-width="1" style="fill: none; stroke: rgb(232, 193, 160);"></path><g transform="translate(-595.0167114341294, -111.94693296451526)"><text text-anchor="end" dominant-baseline="central" style="font-family: sans-serif; font-size: 11px; fill: rgb(51, 51, 51);">Sinapsi</text></g><path d="M-546.6359489318132,-121.61060535749371L-562.2541189012936,-125.08519408199354L-586.2541189012936,-125.08519408199354" fill="none" stroke-width="1" style="fill: none; stroke: rgb(244, 117, 96);"></path><g transform="translate(-592.2541189012936, -125.08519408199354)"><text text-anchor="end" dominant-baseline="central" style="font-family: sans-serif; font-size: 11px; fill: rgb(51, 51, 51);">RuggedCom</text></g><path d="M-543.6531210789227,-134.31784669635752L-559.1860673954634,-138.1554994591106L-583.1860673954634,-138.1554994591106" fill="none" stroke-width="1" style="fill: none; stroke: rgb(241, 225, 91);"></path><g transform="translate(-589.1860673954634, -138.1554994591106)"><text text-anchor="end" dominant-baseline="central" style="font-family: sans-serif; font-size: 11px; fill: rgb(51, 51, 51);">xArrow </text></g><path d="M-540.3749397222563,-146.952116419492L-555.8142237143207,-151.15074831719176L-579.8142237143207,-151.15074831719176" fill="none" stroke-width="1" style="fill: none; stroke: rgb(232, 168, 56);"></path><g transform="translate(-585.8142237143207, -151.15074831719176)"><text text-anchor="end" dominant-baseline="central" style="font-family: sans-serif; font-size: 11px; fill: rgb(51, 51, 51);">PEPPERL+FUCHS</text></g><path d="M-536.8031858179274,-159.50655063577673L-552.1404196984397,-164.06388065394177L-576.1404196984397,-164.06388065394177" fill="none" stroke-width="1" style="fill: none; stroke: rgb(97, 205, 187);"></path><g transform="translate(-582.1404196984397, -164.06388065394177)"><text text-anchor="end" dominant-baseline="central" style="font-family: sans-serif; font-size: 11px; fill: rgb(51, 51, 51);">CareFusion</text></g><path d="M-532.9397998128674,-171.97432882677828L-548.1666512360921,-176.88788107897196L-572.1666512360921,-176.88788107897196" fill="none" stroke-width="1" style="fill: none; stroke: rgb(151, 227, 213);"></path><g transform="translate(-578.1666512360921, -176.88788107897196)"><text text-anchor="end" dominant-baseline="central" style="font-family: sans-serif; font-size: 11px; fill: rgb(51, 51, 51);">Automated Logic Corporation</text></g><path d="M-528.7868805906264,-184.34867755217186L-543.89507717893,-189.61578262509104L-567.89507717893,-189.61578262509104" fill="none" stroke-width="1" style="fill: none; stroke: rgb(232, 193, 160);"></path><g transform="translate(-573.89507717893, -189.61578262509104)"><text text-anchor="end" dominant-baseline="central" style="font-family: sans-serif; font-size: 11px; fill: rgb(51, 51, 51);">Westermo</text></g><path d="M-524.3466843311024,-196.6228741295865L-539.3280181691339,-202.24067053328898L-563.3280181691339,-202.24067053328898" fill="none" stroke-width="1" style="fill: none; stroke: rgb(244, 117, 96);"></path><g transform="translate(-569.3280181691339, -202.24067053328898)"><text text-anchor="end" dominant-baseline="central" style="font-family: sans-serif; font-size: 11px; fill: rgb(51, 51, 51);">Resource Data Management</text></g><path d="M-519.621623284813,-208.79025028687482L-534.4679553786649,-214.75568600935696L-558.4679553786649,-214.75568600935696" fill="none" stroke-width="1" style="fill: none; stroke: rgb(241, 225, 91);"></path><g transform="translate(-564.4679553786649, -214.75568600935696)"><text text-anchor="end" dominant-baseline="central" style="font-family: sans-serif; font-size: 11px; fill: rgb(51, 51, 51);">Abbott Laboratories</text></g><path d="M-514.6142644623786,-220.8441957848226L-529.3175291613037,-227.15402995010325L-553.3175291613037,-227.15402995010325" fill="none" stroke-width="1" style="fill: none; stroke: rgb(232, 168, 56);"></path><g transform="translate(-559.3175291613037, -227.15402995010325)"><text text-anchor="end" dominant-baseline="central" style="font-family: sans-serif; font-size: 11px; fill: rgb(51, 51, 51);">7-Technologies</text></g><path d="M-509.32732823992774,-232.77816200833126L-523.8795376182113,-239.42896663714075L-547.8795376182113,-239.42896663714075" fill="none" stroke-width="1" style="fill: none; stroke: rgb(97, 205, 187);"></path><g transform="translate(-553.8795376182113, -239.42896663714075)"><text text-anchor="end" dominant-baseline="central" style="font-family: sans-serif; font-size: 11px; fill: rgb(51, 51, 51);">Mitsubishi Electric Automation</text></g><path d="M-503.7636868811834,-244.5856655241206L-518.1569350777886,-251.57382739623833L-542.1569350777886,-251.57382739623833" fill="none" stroke-width="1" style="fill: none; stroke: rgb(151, 227, 213);"></path><g transform="translate(-548.1569350777886, -251.57382739623833)"><text text-anchor="end" dominant-baseline="central" style="font-family: sans-serif; font-size: 11px; fill: rgb(51, 51, 51);">NetComm Wireless</text></g><path d="M-497.92636297703183,-256.2602916030205L-512.1528304906614,-263.5820142202497L-536.1528304906614,-263.5820142202497" fill="none" stroke-width="1" style="fill: none; stroke: rgb(232, 193, 160);"></path><g transform="translate(-542.1528304906614, -263.5820142202497)"><text text-anchor="end" dominant-baseline="central" style="font-family: sans-serif; font-size: 11px; fill: rgb(51, 51, 51);">InduSoft</text></g><path d="M-491.8185278034227,-267.7956977049369L-505.8704857406633,-275.4470033536494L-529.8704857406633,-275.4470033536494" fill="none" stroke-width="1" style="fill: none; stroke: rgb(244, 117, 96);"></path><g transform="translate(-535.8704857406633, -275.4470033536494)"><text text-anchor="end" dominant-baseline="central" style="font-family: sans-serif; font-size: 11px; fill: rgb(51, 51, 51);">Sauter</text></g><path d="M-485.4434995984916,-279.1856169245996L-499.3133138727342,-287.16234883673104L-523.3133138727342,-287.16234883673104" fill="none" stroke-width="1" style="fill: none; stroke: rgb(241, 225, 91);"></path><g transform="translate(-529.3133138727342, -287.16234883673104)"><text text-anchor="end" dominant-baseline="central" style="font-family: sans-serif; font-size: 11px; fill: rgb(51, 51, 51);">Crestron</text></g><path d="M-478.8047417598427,-290.42386139621914L-492.4848772386954,-298.7216860075397L-516.4848772386954,-298.7216860075397" fill="none" stroke-width="1" style="fill: none; stroke: rgb(232, 168, 56);"></path><g transform="translate(-522.4848772386954, -298.7216860075397)"><text text-anchor="end" dominant-baseline="central" style="font-family: sans-serif; font-size: 11px; fill: rgb(51, 51, 51);">Unitronics</text></g><path d="M-471.90586096296886,-301.5043256552037L-485.3888855619108,-310.11873495963806L-509.3888855619108,-310.11873495963806" fill="none" stroke-width="1" style="fill: none; stroke: rgb(97, 205, 187);"></path><g transform="translate(-515.3888855619108, -310.11873495963806)"><text text-anchor="end" dominant-baseline="central" style="font-family: sans-serif; font-size: 11px; fill: rgb(51, 51, 51);">Kabona AB</text></g><path d="M-464.75060520183246,-312.42098995510923L-478.0291939218848,-321.3473039538266L-502.0291939218848,-321.3473039538266" fill="none" stroke-width="1" style="fill: none; stroke: rgb(151, 227, 213);"></path><g transform="translate(-508.0291939218848, -321.3473039538266)"><text text-anchor="end" dominant-baseline="central" style="font-family: sans-serif; font-size: 11px; fill: rgb(51, 51, 51);">Echelon</text></g><path d="M-457.34286175267187,-323.16792353802145L-470.40980065989106,-332.4012927819649L-494.40980065989106,-332.4012927819649" fill="none" stroke-width="1" style="fill: none; stroke: rgb(232, 193, 160);"></path><g transform="translate(-500.40980065989106, -332.4012927819649)"><text text-anchor="end" dominant-baseline="central" style="font-family: sans-serif; font-size: 11px; fill: rgb(51, 51, 51);">Festo</text></g><path d="M-449.6866550621387,-333.7392878565919L-462.53484520677125,-343.27469608106594L-486.53484520677125,-343.27469608106594" fill="none" stroke-width="1" style="fill: none; stroke: rgb(244, 117, 96);"></path><g transform="translate(-492.53484520677125, -343.27469608106594)"><text text-anchor="end" dominant-baseline="central" style="font-family: sans-serif; font-size: 11px; fill: rgb(51, 51, 51);">C3-ilex</text></g><path d="M-441.78614456091407,-344.12933974597854L-454.408605834083,-353.96160659586366L-478.408605834083,-353.96160659586366" fill="none" stroke-width="1" style="fill: none; stroke: rgb(241, 225, 91);"></path><g transform="translate(-484.408605834083, -353.96160659586366)"><text text-anchor="end" dominant-baseline="central" style="font-family: sans-serif; font-size: 11px; fill: rgb(51, 51, 51);">IniNet Solutions GmbH</text></g><path d="M-433.64562240399107,-354.33243454396774L-446.03549732981935,-364.4562183880811L-470.03549732981935,-364.4562183880811" fill="none" stroke-width="1" style="fill: none; stroke: rgb(232, 168, 56);"></path><g transform="translate(-476.03549732981935, -364.4562183880811)"><text text-anchor="end" dominant-baseline="central" style="font-family: sans-serif; font-size: 11px; fill: rgb(51, 51, 51);">Accuenergy</text></g><path d="M-425.2695111388515,-364.3430291575814L-437.42006859996155,-374.7528299906552L-461.42006859996155,-374.7528299906552" fill="none" stroke-width="1" style="fill: none; stroke: rgb(97, 205, 187);"></path><g transform="translate(-467.42006859996155, -374.7528299906552)"><text text-anchor="end" dominant-baseline="central" style="font-family: sans-serif; font-size: 11px; fill: rgb(51, 51, 51);">Martem</text></g><path d="M-416.6623613028037,-374.1556850745047L-428.5670001971695,-384.8458475052048L-452.5670001971695,-384.8458475052048" fill="none" stroke-width="1" style="fill: none; stroke: rgb(151, 227, 213);"></path><g transform="translate(-458.5670001971695, -384.8458475052048)"><text text-anchor="end" dominant-baseline="central" style="font-family: sans-serif; font-size: 11px; fill: rgb(51, 51, 51);">Koyo</text></g><path d="M-225.13082324032536,-512.7534616432475L-231.56313247576324,-527.4035605473404L-255.56313247576324,-527.4035605473404" fill="none" stroke-width="1" style="fill: none; stroke: rgb(232, 193, 160);"></path><g transform="translate(-261.56313247576327, -527.4035605473404)"><text text-anchor="end" dominant-baseline="central" style="font-family: sans-serif; font-size: 11px; fill: rgb(51, 51, 51);">others - 197 vendors</text></g><g transform="translate(169.51035639143754, -337.8612719387172)" style="pointer-events: none;"><text text-anchor="middle" dominant-baseline="central" style="font-family: sans-serif; font-size: 11px; fill: rgb(51, 51, 51);">331</text></g><g transform="translate(345.39919996955797, -153.56885315841004)" style="pointer-events: none;"><text text-anchor="middle" dominant-baseline="central" style="font-family: sans-serif; font-size: 11px; fill: rgb(51, 51, 51);">156</text></g><g transform="translate(377.89571106196286, -8.878713925646855)" style="pointer-events: none;"><text text-anchor="middle" dominant-baseline="central" style="font-family: sans-serif; font-size: 11px; fill: rgb(51, 51, 51);">120</text></g><g transform="translate(361.35076205890664, 110.94875735873484)" style="pointer-events: none;"><text text-anchor="middle" dominant-baseline="central" style="font-family: sans-serif; font-size: 11px; fill: rgb(51, 51, 51);">103</text></g><g transform="translate(322.80621252724404, 196.67269549639002)" style="pointer-events: none;"><text text-anchor="middle" dominant-baseline="central" style="font-family: sans-serif; font-size: 11px; fill: rgb(51, 51, 51);">68</text></g><g transform="translate(285.8432003153709, 247.34119113780213)" style="pointer-events: none;"><text text-anchor="middle" dominant-baseline="central" style="font-family: sans-serif; font-size: 11px; fill: rgb(51, 51, 51);">43</text></g><g transform="translate(252.13104824715364, 281.6272971673582)" style="pointer-events: none;"><text text-anchor="middle" dominant-baseline="central" style="font-family: sans-serif; font-size: 11px; fill: rgb(51, 51, 51);">40</text></g><g transform="translate(220.3418014410079, 307.1375759130287)" style="pointer-events: none;"><text text-anchor="middle" dominant-baseline="central" style="font-family: sans-serif; font-size: 11px; fill: rgb(51, 51, 51);">29</text></g><g transform="translate(192.7935633132692, 325.1378814364338)" style="pointer-events: none;"><text text-anchor="middle" dominant-baseline="central" style="font-family: sans-serif; font-size: 11px; fill: rgb(51, 51, 51);">25</text></g><g transform="translate(165.67090857522174, 339.7604303797906)" style="pointer-events: none;"><text text-anchor="middle" dominant-baseline="central" style="font-family: sans-serif; font-size: 11px; fill: rgb(51, 51, 51);">25</text></g><g transform="translate(137.93544590613814, 351.9343870136518)" style="pointer-events: none;"><text text-anchor="middle" dominant-baseline="central" style="font-family: sans-serif; font-size: 11px; fill: rgb(51, 51, 51);">24</text></g><g transform="translate(110.31723594929034, 361.5440601814786)" style="pointer-events: none;"><text text-anchor="middle" dominant-baseline="central" style="font-family: sans-serif; font-size: 11px; fill: rgb(51, 51, 51);">23</text></g><g transform="translate(83.06166171016271, 368.7611155666314)" style="pointer-events: none;"><text text-anchor="middle" dominant-baseline="central" style="font-family: sans-serif; font-size: 11px; fill: rgb(51, 51, 51);">22</text></g><g transform="translate(56.380601142887244, 373.7716252135342)" style="pointer-events: none;"><text text-anchor="middle" dominant-baseline="central" style="font-family: sans-serif; font-size: 11px; fill: rgb(51, 51, 51);">21</text></g><g transform="translate(30.975929260643184, 376.7286713358032)" style="pointer-events: none;"><text text-anchor="middle" dominant-baseline="central" style="font-family: sans-serif; font-size: 11px; fill: rgb(51, 51, 51);">19</text></g><g transform="translate(6.477461699868108, 377.94449657314334)" style="pointer-events: none;"><text text-anchor="middle" dominant-baseline="central" style="font-family: sans-serif; font-size: 11px; fill: rgb(51, 51, 51);">19</text></g><g transform="translate(-18.048281029545798, 377.56888053953617)" style="pointer-events: none;"><text text-anchor="middle" dominant-baseline="central" style="font-family: sans-serif; font-size: 11px; fill: rgb(51, 51, 51);">19</text></g><g transform="translate(-42.498026411305474, 375.60340487160653)" style="pointer-events: none;"><text text-anchor="middle" dominant-baseline="central" style="font-family: sans-serif; font-size: 11px; fill: rgb(51, 51, 51);">19</text></g><g transform="translate(-66.25292519068006, 372.1485589165678)" style="pointer-events: none;"><text text-anchor="middle" dominant-baseline="central" style="font-family: sans-serif; font-size: 11px; fill: rgb(51, 51, 51);">18</text></g><g transform="translate(-88.72211177058573, 367.4403174434832)" style="pointer-events: none;"><text text-anchor="middle" dominant-baseline="central" style="font-family: sans-serif; font-size: 11px; fill: rgb(51, 51, 51);">17</text></g><g transform="translate(-109.86156694433132, 361.682783815509)" style="pointer-events: none;"><text text-anchor="middle" dominant-baseline="central" style="font-family: sans-serif; font-size: 11px; fill: rgb(51, 51, 51);">16</text></g><g transform="translate(-129.15546110170817, 355.2504283848299)" style="pointer-events: none;"><text text-anchor="middle" dominant-baseline="central" style="font-family: sans-serif; font-size: 11px; fill: rgb(51, 51, 51);">14</text></g><g transform="translate(-146.62762570906327, 348.40255363433096)" style="pointer-events: none;"><text text-anchor="middle" dominant-baseline="central" style="font-family: sans-serif; font-size: 11px; fill: rgb(51, 51, 51);">13</text></g><g transform="translate(-162.79305803432632, 341.14867764045704)" style="pointer-events: none;"><text text-anchor="middle" dominant-baseline="central" style="font-family: sans-serif; font-size: 11px; fill: rgb(51, 51, 51);">12</text></g><g transform="translate(-177.6763516177518, 333.63919745108643)" style="pointer-events: none;"><text text-anchor="middle" dominant-baseline="central" style="font-family: sans-serif; font-size: 11px; fill: rgb(51, 51, 51);">11</text></g><g transform="translate(-191.31081535150838, 326.01253339333607)" style="pointer-events: none;"><text text-anchor="middle" dominant-baseline="central" style="font-family: sans-serif; font-size: 11px; fill: rgb(51, 51, 51);">10</text></g><g transform="translate(-204.1776486814527, 318.11238230995235)" style="pointer-events: none;"><text text-anchor="middle" dominant-baseline="central" style="font-family: sans-serif; font-size: 11px; fill: rgb(51, 51, 51);">10</text></g><g transform="translate(-216.28912752600593, 310.0048601458357)" style="pointer-events: none;"><text text-anchor="middle" dominant-baseline="central" style="font-family: sans-serif; font-size: 11px; fill: rgb(51, 51, 51);">9</text></g><g transform="translate(-227.66091632606512, 301.75239382244575)" style="pointer-events: none;"><text text-anchor="middle" dominant-baseline="central" style="font-family: sans-serif; font-size: 11px; fill: rgb(51, 51, 51);">9</text></g><g transform="translate(-238.7181492914, 293.0830005286708)" style="pointer-events: none;"><text text-anchor="middle" dominant-baseline="central" style="font-family: sans-serif; font-size: 11px; fill: rgb(51, 51, 51);">9</text></g><g transform="translate(-249.4455488012345, 284.00865864133596)" style="pointer-events: none;"><text text-anchor="middle" dominant-baseline="central" style="font-family: sans-serif; font-size: 11px; fill: rgb(51, 51, 51);">9</text></g><g transform="translate(-259.82829296096475, 274.5419060489511)" style="pointer-events: none;"><text text-anchor="middle" dominant-baseline="central" style="font-family: sans-serif; font-size: 11px; fill: rgb(51, 51, 51);">9</text></g><g transform="translate(-151.9633056872197, -346.10858660919206)" style="pointer-events: none;"><text text-anchor="middle" dominant-baseline="central" style="font-family: sans-serif; font-size: 11px; fill: rgb(51, 51, 51);">294</text></g></g></g></svg>
